<svg width="1089" height="643" viewBox="0 0 1089 643" fill="none" xmlns="http://www.w3.org/2000/svg">
<g filter="url(#filter0_d_1_12)">
<path d="M306.5 0L571.937 482.25H41.0632L306.5 0Z" fill="#D7322C"/>
<path d="M263.162 233.857C264.106 233.425 265.204 233.451 266.132 233.917C267.978 234.847 270.243 233.931 270.893 231.969C271.352 230.583 272.648 229.647 274.108 229.647H274.752C275.97 229.647 277.12 229.129 277.956 228.244C286.711 218.965 304.136 205.186 317 209.988C319.422 210.892 320.388 213.627 319.884 216.164C319.216 219.528 321.203 222.852 324.482 223.857L325.774 224.253C328.53 225.098 331.487 224.349 333.959 222.867C336.506 221.341 339.63 220.099 342.537 220.352C345.456 220.606 346.883 223.965 348.992 225.998C350.225 227.187 352.064 228.466 354.743 229.647C360.415 232.838 372.06 239.12 373.261 238.717C374.746 238.219 376.232 227.364 389.346 244.694C389.626 245.064 389.714 245.165 390.025 245.509C392.69 248.468 393.668 254.265 397.647 254.425C399.985 254.519 401.914 254.275 402.289 253.331C403.09 251.315 401.622 251.819 400.788 252.323C402.767 250.953 406.655 249.287 409.838 250.655C412.228 251.681 414.21 253.681 416.712 254.39C423.196 256.229 431.405 258.956 433.497 261.024C434.241 261.76 433.63 262.9 433.116 263.811C431.713 266.296 428.422 271.04 422.309 277.519C421.655 278.342 420.895 279.433 420.341 280.53C418.984 283.22 421.378 286.209 418.48 287.035C416.502 287.599 412.799 289.651 412.799 291.709V296.889C412.799 299.64 413.964 302.247 415.895 304.207C422.668 311.084 428.96 319.649 418.558 317.508C415.926 316.966 413.129 320.352 410.445 320.488C409.802 320.52 409.006 320.37 408.028 319.976C406.347 319.297 404.291 320.333 404.291 322.147C404.291 323.382 403.282 324.365 402.067 324.59C398.666 325.221 395 327.436 397.609 333.088C397.721 333.329 397.867 333.569 398.018 333.789C401.006 338.136 401.364 356.549 400.192 361.692C399.708 363.819 398.669 365.91 396.871 367.84C395.66 369.141 394.782 370.777 394.782 372.555V376.802C394.782 377.631 394.11 378.303 393.28 378.303C392.451 378.303 391.779 378.976 391.779 379.805V382.335C391.779 384.561 389.974 386.366 387.748 386.366H383.194C381.375 386.366 379.684 387.306 378.724 388.853C378.103 389.853 377.849 391.033 377.911 392.209C378.07 395.194 377.88 398.919 376.864 401.899C375.126 407 368.997 411.239 367.552 416.432C367.015 418.365 366.407 420.347 365.742 422.225C364.343 426.177 362.385 432.644 358.286 433.524C358.229 433.536 358.172 433.548 358.114 433.56C357.542 433.681 356.986 433.882 356.477 434.17L348.04 438.948C345.983 440.113 339.883 439.557 337.801 440.677C337.49 440.844 336.543 441.312 336.192 441.349L322.211 442.805H319.606C318.36 442.805 317.134 443.12 316.042 443.72L313.351 445.198C312.642 445.587 312.201 446.331 312.201 447.14C312.201 448.364 311.209 449.356 309.985 449.356H304.387C302.64 449.356 300.944 449.941 299.569 451.018L299.439 451.12C297.98 452.263 296.18 452.884 294.326 452.884H292.14C289.9 452.884 287.727 453.65 285.983 455.055C284.477 456.268 282.646 457.009 280.721 457.185L272.307 457.955C269.077 458.251 266.191 460.095 264.565 462.901L264.358 463.258C263.891 464.065 263.329 464.818 262.594 465.392C258.492 468.595 250.941 470.837 246.131 459.652C245.785 458.846 245.376 458.067 244.863 457.356L241.633 452.884C239.322 448.813 241.633 442.034 241.633 437.353V436.498C241.633 434.695 242.229 432.96 242.927 431.297C244.563 427.404 244.521 422.616 236.729 422.449C234.399 422.399 232.005 422.006 230.272 420.446C226.135 416.722 221.92 410.422 225.602 403.84C225.923 403.267 226.374 402.776 226.741 402.231C227.016 401.823 227.261 401.343 227.424 400.813C228.772 396.434 225.46 391.213 224.53 386.728C223.887 383.625 222.079 380.563 218.1 378.849C217.182 378.453 216.132 378.646 215.32 379.23L214.663 379.703C213.765 380.348 212.532 380.246 211.752 379.461C211.066 378.771 210.014 378.6 209.144 379.037L206.627 380.305C205.996 380.622 205.597 381.269 205.597 381.976C205.597 383.009 204.76 383.846 203.727 383.846H202.599C201.946 383.846 201.312 383.634 200.791 383.241L198.091 381.201C197.766 380.956 197.369 380.823 196.961 380.823H196.599C195.764 380.823 195.087 381.5 195.087 382.335C195.087 383.17 194.41 383.846 193.575 383.846H184.112C181.842 383.846 179.963 385.612 179.822 387.878L179.677 390.215C179.618 391.167 178.829 391.909 177.875 391.909C176.877 391.909 176.069 391.101 176.069 390.103V387.419C176.069 386.727 175.941 386.015 175.492 385.488C174.848 384.731 173.889 384.195 172.805 384.95C171.799 385.651 171.29 386.58 170.072 386.727C166.312 387.18 164.046 380.549 160.289 380.06C153.65 379.197 144.898 377.585 137.26 374.905C136.109 374.502 134.904 374.272 133.685 374.272H132.861C131.656 374.272 130.47 374.574 129.413 375.151C124.672 377.737 118.951 374.351 119.789 369.017C120.671 363.405 122.41 358.118 125.577 356.56C126.476 356.117 127.483 355.912 128.389 355.483C132.5 353.535 134.11 348.377 136.439 344.468C138.208 341.5 142.046 338.937 149.51 338.545C150.822 338.476 152.06 338.065 153.169 337.36C157.446 334.641 169.339 333.224 174.113 331.519C180.494 329.24 189.185 328.626 199.725 332.758C203.39 334.194 207.597 333.917 210.707 331.502L218.284 325.616C221.115 323.417 221.926 319.586 221.106 316.095C220.55 313.728 220.433 311.484 221.427 310.418C222.128 309.666 223.114 308.937 223.114 307.91C223.114 306.768 222.095 305.908 220.955 305.958C215.738 306.187 211.383 303.967 222.47 294.015C225.218 291.548 226.547 287.816 225.657 284.231L225.561 283.847C225.269 282.668 224.704 281.575 223.912 280.655L220.893 277.148C219.65 275.703 219.865 273.513 221.365 272.338C222.425 271.508 222.849 270.126 222.708 268.787C222.27 264.61 223.578 259.138 230.546 257.981C233.241 257.533 235.627 255.509 235.627 252.776C235.627 250.964 234.525 249.381 233.052 248.325C232.702 248.075 232.373 247.811 232.079 247.537C228.469 244.179 230.386 234.865 234.191 231.731C234.929 231.123 236.205 230.819 238.206 230.982C239.138 231.058 240 231.487 240.795 231.98C242.566 233.079 244.636 233.678 245.694 232.143C247.438 229.613 252.608 226.729 251.642 229.647C251.351 230.527 254.049 230.393 256.568 230.06C257.754 229.903 258.752 231.008 258.416 232.157L257.599 234.955C257.348 235.814 258.409 236.44 259.039 235.805C259.112 235.731 259.198 235.671 259.292 235.628L263.162 233.857Z" fill="white"/>
<path d="M358 252V260C361 254.5 368.2 242.6 373 239H355.5V243.5C346.5 247.833 327.2 261.8 322 283C328 274.5 343.6 256.4 358 252Z" fill="black" stroke="black"/>
<path d="M285 170L269 203.729H278C275.5 243.5 312 304.414 321 265.651C313.5 277.731 301.5 268.671 296 203.729L303.5 210.777L285 170Z" fill="black"/>
<path d="M252.5 293.339L228 307.435L250 317L248.5 310.455C263 309.616 294.9 303.105 306.5 283.774C299 288.473 277.7 298.273 252.5 299.884V293.339Z" fill="black"/>
<path d="M325.76 293.017C335.647 302.264 355.521 321.866 355.923 326.304H350.393L370 339.922L367.989 321.261L362.962 324.287C358.94 315.377 345.869 296.649 325.76 293.017Z" fill="black"/>
<path d="M314.197 291C314.867 298.397 311.583 318.537 293.082 339.922L296.098 343.957L278 349L286.546 326.304L288.055 332.861C295.26 323.951 310.577 303.104 314.197 291Z" fill="black"/>
<path d="M325.76 293.017C335.647 302.264 355.521 321.866 355.923 326.304H350.393L370 339.922L367.989 321.261L362.962 324.287C358.94 315.377 345.869 296.649 325.76 293.017Z" stroke="black"/>
<path d="M314.197 291C314.867 298.397 311.583 318.537 293.082 339.922L296.098 343.957L278 349L286.546 326.304L288.055 332.861C295.26 323.951 310.577 303.104 314.197 291Z" stroke="black"/>
<rect x="572" y="126" width="513" height="118" fill="#D7322C"/>
<path d="M605.5 220V157H629.44C632.74 157 635.62 157.84 638.08 159.52C640.54 161.14 642.43 163.3 643.75 166C645.13 168.7 645.82 171.64 645.82 174.82C645.82 176.74 645.52 178.72 644.92 180.76C644.32 182.8 643.42 184.69 642.22 186.43C644.26 188.11 645.85 190.21 646.99 192.73C648.13 195.25 648.7 197.95 648.7 200.83C648.7 203.17 648.25 205.48 647.35 207.76C646.51 210.04 645.31 212.11 643.75 213.97C642.25 215.77 640.48 217.24 638.44 218.38C636.46 219.46 634.33 220 632.05 220H605.5ZM616.57 183.1H629.17C630.25 183.1 631.21 182.68 632.05 181.84C632.89 181 633.55 179.95 634.03 178.69C634.57 177.43 634.84 176.14 634.84 174.82C634.84 173.08 634.36 171.55 633.4 170.23C632.44 168.91 631.12 168.25 629.44 168.25H616.57V183.1ZM616.57 208.75H632.05C633.01 208.75 633.91 208.36 634.75 207.58C635.59 206.74 636.28 205.72 636.82 204.52C637.36 203.32 637.63 202.09 637.63 200.83C637.63 198.91 637.12 197.29 636.1 195.97C635.14 194.59 633.88 193.9 632.32 193.9H616.57V208.75ZM690.758 220H656.828V157H690.758V167.08H667.628V184.63H686.348V193.72H667.628V209.92H690.758V220ZM728.45 220H698.84V157H709.64V209.38H728.45V220ZM735.645 219.91L755.085 157H768.675L788.205 219.91H776.685L772.185 204.7H751.665L747.165 219.91H735.645ZM761.925 170.5L754.545 195.34H769.305L761.925 170.5ZM878.02 157L858.85 220H848.77L829.6 157H841.12L853.81 204.25L866.5 157H878.02ZM896.935 220H886.135V157H896.935V220ZM926.88 220.9C924.18 220.9 921.45 220.48 918.69 219.64C915.99 218.8 913.44 217.66 911.04 216.22C908.7 214.72 906.69 213.07 905.01 211.27L913.02 203.53C914.82 205.39 916.98 206.89 919.5 208.03C922.08 209.17 924.48 209.74 926.7 209.74C929.52 209.74 931.89 208.93 933.81 207.31C935.79 205.63 936.78 203.65 936.78 201.37C936.78 199.51 936.09 197.92 934.71 196.6C933.33 195.22 931.62 194.23 929.58 193.63C924.24 192.19 919.68 190.66 915.9 189.04C912.18 187.42 909.42 185.29 907.62 182.65C905.82 180.01 905.16 176.47 905.64 172.03C906.06 168.55 907.2 165.67 909.06 163.39C910.98 161.05 913.38 159.31 916.26 158.17C919.2 157.03 922.44 156.46 925.98 156.46C929.16 156.46 932.49 156.97 935.97 157.99C939.45 158.95 942.9 160.57 946.32 162.85L938.67 170.77C936.93 169.81 935.04 169 933 168.34C930.96 167.68 928.86 167.32 926.7 167.26C925.02 167.2 923.4 167.38 921.84 167.8C920.34 168.16 919.08 168.82 918.06 169.78C917.04 170.68 916.5 171.91 916.44 173.47C916.38 175.21 916.83 176.56 917.79 177.52C918.75 178.48 920.07 179.26 921.75 179.86C923.49 180.46 925.5 181.12 927.78 181.84C931.98 182.98 935.55 184.3 938.49 185.8C941.43 187.24 943.68 189.19 945.24 191.65C946.8 194.05 947.58 197.29 947.58 201.37C947.58 205.03 946.65 208.33 944.79 211.27C942.93 214.21 940.44 216.55 937.32 218.29C934.2 220.03 930.72 220.9 926.88 220.9ZM1001.2 166.9H983.376V220H972.576V166.9H954.756V157H1001.2V166.9ZM999.405 219.91L1018.84 157H1032.43L1051.96 219.91H1040.44L1035.94 204.7H1015.42L1010.92 219.91H999.405ZM1025.68 170.5L1018.3 195.34H1033.06L1025.68 170.5Z" fill="#FFE8E8"/>
<path d="M616.85 304.6C616.85 308.2 616.2 311.6 614.9 314.8C613.65 317.95 611.875 320.75 609.575 323.2C607.275 325.65 604.575 327.575 601.475 328.975C598.425 330.325 595.125 331 591.575 331H575.75V278.275H591.575C595.175 278.275 598.5 278.975 601.55 280.375C604.65 281.775 607.325 283.7 609.575 286.15C611.875 288.6 613.65 291.4 614.9 294.55C616.2 297.7 616.85 301.05 616.85 304.6ZM607.55 304.6C607.55 301.35 606.85 298.45 605.45 295.9C604.05 293.3 602.125 291.25 599.675 289.75C597.275 288.25 594.575 287.5 591.575 287.5H584.75V321.775H591.575C594.625 321.775 597.35 321 599.75 319.45C602.15 317.9 604.05 315.825 605.45 313.225C606.85 310.625 607.55 307.75 607.55 304.6ZM632.577 331H623.577V278.5H632.577V331ZM657.532 331.75C655.282 331.75 653.007 331.4 650.707 330.7C648.457 330 646.332 329.05 644.332 327.85C642.382 326.6 640.707 325.225 639.307 323.725L645.982 317.275C647.482 318.825 649.282 320.075 651.382 321.025C653.532 321.975 655.532 322.45 657.382 322.45C659.732 322.45 661.707 321.775 663.307 320.425C664.957 319.025 665.782 317.375 665.782 315.475C665.782 313.925 665.207 312.6 664.057 311.5C662.907 310.35 661.482 309.525 659.782 309.025C655.332 307.825 651.532 306.55 648.382 305.2C645.282 303.85 642.982 302.075 641.482 299.875C639.982 297.675 639.432 294.725 639.832 291.025C640.182 288.125 641.132 285.725 642.682 283.825C644.282 281.875 646.282 280.425 648.682 279.475C651.132 278.525 653.832 278.05 656.782 278.05C659.432 278.05 662.207 278.475 665.107 279.325C668.007 280.125 670.882 281.475 673.732 283.375L667.357 289.975C665.907 289.175 664.332 288.5 662.632 287.95C660.932 287.4 659.182 287.1 657.382 287.05C655.982 287 654.632 287.15 653.332 287.5C652.082 287.8 651.032 288.35 650.182 289.15C649.332 289.9 648.882 290.925 648.832 292.225C648.782 293.675 649.157 294.8 649.957 295.6C650.757 296.4 651.857 297.05 653.257 297.55C654.707 298.05 656.382 298.6 658.282 299.2C661.782 300.15 664.757 301.25 667.207 302.5C669.657 303.7 671.532 305.325 672.832 307.375C674.132 309.375 674.782 312.075 674.782 315.475C674.782 318.525 674.007 321.275 672.457 323.725C670.907 326.175 668.832 328.125 666.232 329.575C663.632 331.025 660.732 331.75 657.532 331.75ZM719.462 286.75H704.612V331H695.612V286.75H680.762V278.5H719.462V286.75ZM762.489 331H751.764L739.764 310.525H735.189V331H726.189L726.264 278.5H745.989C748.639 278.5 750.989 279.25 753.039 280.75C755.089 282.25 756.689 284.225 757.839 286.675C759.039 289.075 759.639 291.675 759.639 294.475C759.639 296.575 759.214 298.65 758.364 300.7C757.564 302.7 756.439 304.5 754.989 306.1C753.539 307.7 751.864 308.9 749.964 309.7L762.489 331ZM750.489 294.475C750.489 293.475 750.264 292.45 749.814 291.4C749.364 290.3 748.764 289.375 748.014 288.625C747.264 287.875 746.389 287.5 745.389 287.5H735.189V301H745.389C746.389 301 747.264 300.675 748.014 300.025C748.764 299.375 749.364 298.55 749.814 297.55C750.264 296.5 750.489 295.475 750.489 294.475ZM778.256 331H769.256V278.5H778.256V331ZM785.735 331V278.5H805.685C808.435 278.5 810.835 279.2 812.885 280.6C814.935 281.95 816.51 283.75 817.61 286C818.76 288.25 819.335 290.7 819.335 293.35C819.335 294.95 819.085 296.6 818.585 298.3C818.085 300 817.335 301.575 816.335 303.025C818.035 304.425 819.36 306.175 820.31 308.275C821.26 310.375 821.735 312.625 821.735 315.025C821.735 316.975 821.36 318.9 820.61 320.8C819.91 322.7 818.91 324.425 817.61 325.975C816.36 327.475 814.885 328.7 813.185 329.65C811.535 330.55 809.76 331 807.86 331H785.735ZM794.96 300.25H805.46C806.36 300.25 807.16 299.9 807.86 299.2C808.56 298.5 809.11 297.625 809.51 296.575C809.96 295.525 810.185 294.45 810.185 293.35C810.185 291.9 809.785 290.625 808.985 289.525C808.185 288.425 807.085 287.875 805.685 287.875H794.96V300.25ZM794.96 321.625H807.86C808.66 321.625 809.41 321.3 810.11 320.65C810.81 319.95 811.385 319.1 811.835 318.1C812.285 317.1 812.51 316.075 812.51 315.025C812.51 313.425 812.085 312.075 811.235 310.975C810.435 309.825 809.385 309.25 808.085 309.25H794.96V321.625ZM858.284 331V326.725C856.834 328.125 855.209 329.25 853.409 330.1C851.609 330.95 849.634 331.375 847.484 331.375C843.684 331.375 840.284 330.525 837.284 328.825C834.334 327.075 832.009 324.725 830.309 321.775C828.609 318.825 827.759 315.575 827.759 312.025V278.5H836.684L836.759 312.025C836.759 313.925 837.234 315.65 838.184 317.2C839.134 318.7 840.409 319.875 842.009 320.725C843.659 321.575 845.484 322 847.484 322C849.584 322 851.434 321.575 853.034 320.725C854.684 319.825 855.959 318.625 856.859 317.125C857.809 315.625 858.284 313.925 858.284 312.025V278.5H867.284V310.6C867.284 311.1 867.234 311.55 867.134 311.95H867.284V331H858.284ZM883.798 331H874.798V278.5H883.798V331ZM932.377 304.6C932.377 308.2 931.727 311.6 930.427 314.8C929.177 317.95 927.402 320.75 925.102 323.2C922.802 325.65 920.102 327.575 917.002 328.975C913.952 330.325 910.652 331 907.102 331H891.277V278.275H907.102C910.702 278.275 914.027 278.975 917.077 280.375C920.177 281.775 922.852 283.7 925.102 286.15C927.402 288.6 929.177 291.4 930.427 294.55C931.727 297.7 932.377 301.05 932.377 304.6ZM923.077 304.6C923.077 301.35 922.377 298.45 920.977 295.9C919.577 293.3 917.652 291.25 915.202 289.75C912.802 288.25 910.102 287.5 907.102 287.5H900.277V321.775H907.102C910.152 321.775 912.877 321 915.277 319.45C917.677 317.9 919.577 315.825 920.977 313.225C922.377 310.625 923.077 307.75 923.077 304.6ZM988.265 304.6C988.265 308.35 987.59 311.875 986.24 315.175C984.94 318.425 983.115 321.275 980.765 323.725C978.415 326.175 975.69 328.1 972.59 329.5C969.49 330.9 966.165 331.6 962.615 331.6C959.015 331.6 955.665 330.9 952.565 329.5C949.465 328.05 946.74 326.1 944.39 323.65C942.04 321.15 940.19 318.275 938.84 315.025C937.54 311.725 936.89 308.25 936.89 304.6C936.89 300.95 937.565 297.525 938.915 294.325C940.265 291.075 942.14 288.225 944.54 285.775C946.94 283.275 949.69 281.325 952.79 279.925C955.89 278.525 959.165 277.825 962.615 277.825C966.165 277.825 969.465 278.525 972.515 279.925C975.615 281.325 978.34 283.275 980.69 285.775C983.09 288.225 984.94 291.075 986.24 294.325C987.59 297.525 988.265 300.95 988.265 304.6ZM978.965 304.6C978.965 301.3 978.215 298.3 976.715 295.6C975.265 292.9 973.29 290.75 970.79 289.15C968.34 287.5 965.615 286.675 962.615 286.675C959.615 286.675 956.865 287.5 954.365 289.15C951.865 290.8 949.865 293 948.365 295.75C946.915 298.45 946.19 301.4 946.19 304.6C946.19 307.9 946.915 310.925 948.365 313.675C949.865 316.425 951.865 318.625 954.365 320.275C956.865 321.925 959.615 322.75 962.615 322.75C965.665 322.75 968.415 321.925 970.865 320.275C973.315 318.625 975.265 316.425 976.715 313.675C978.215 310.875 978.965 307.85 978.965 304.6ZM1031.29 331H1020.56L1008.56 310.525H1003.99V331H994.988L995.063 278.5H1014.79C1017.44 278.5 1019.79 279.25 1021.84 280.75C1023.89 282.25 1025.49 284.225 1026.64 286.675C1027.84 289.075 1028.44 291.675 1028.44 294.475C1028.44 296.575 1028.01 298.65 1027.16 300.7C1026.36 302.7 1025.24 304.5 1023.79 306.1C1022.34 307.7 1020.66 308.9 1018.76 309.7L1031.29 331ZM1019.29 294.475C1019.29 293.475 1019.06 292.45 1018.61 291.4C1018.16 290.3 1017.56 289.375 1016.81 288.625C1016.06 287.875 1015.19 287.5 1014.19 287.5H1003.99V301H1014.19C1015.19 301 1016.06 300.675 1016.81 300.025C1017.56 299.375 1018.16 298.55 1018.61 297.55C1019.06 296.5 1019.29 295.475 1019.29 294.475ZM1035.84 330.925L1052.04 278.5H1063.36L1079.64 330.925H1070.04L1066.29 318.25H1049.19L1045.44 330.925H1035.84ZM1057.74 289.75L1051.59 310.45H1063.89L1057.74 289.75Z" fill="#D7322C"/>
</g>
<defs>
<filter id="filter0_d_1_12" x="37.0632" y="0" width="1051.94" height="490.25" filterUnits="userSpaceOnUse" color-interpolation-filters="sRGB">
<feFlood flood-opacity="0" result="BackgroundImageFix"/>
<feColorMatrix in="SourceAlpha" type="matrix" values="0 0 0 0 0 0 0 0 0 0 0 0 0 0 0 0 0 0 127 0" result="hardAlpha"/>
<feOffset dy="4"/>
<feGaussianBlur stdDeviation="2"/>
<feComposite in2="hardAlpha" operator="out"/>
<feColorMatrix type="matrix" values="0 0 0 0 0 0 0 0 0 0 0 0 0 0 0 0 0 0 0.25 0"/>
<feBlend mode="normal" in2="BackgroundImageFix" result="effect1_dropShadow_1_12"/>
<feBlend mode="normal" in="SourceGraphic" in2="effect1_dropShadow_1_12" result="shape"/>
</filter>
</defs>
</svg>
